<svg version="1.1" id="Layer_1" xmlns="http://www.w3.org/2000/svg" xmlns:xlink="http://www.w3.org/1999/xlink" x="0px" y="0px"
	 width="100%" viewBox="0 0 93 146" enable-background="new 0 0 93 146" xml:space="preserve">
<path fill="#fff" opacity="1.000000" stroke="none" 
	d="
M47.000000,147.000000 
	C31.349213,147.000000 16.198425,147.000000 1.023820,147.000000 
	C1.023820,98.400177 1.023820,49.800343 1.023820,1.100252 
	C31.900419,1.100252 62.801273,1.100252 93.851059,1.100252 
	C93.851059,49.666302 93.851059,98.333107 93.851059,147.000000 
	C78.467506,147.000000 62.983753,147.000000 47.000000,147.000000 
M34.640953,89.021828 
	C28.644947,104.013947 19.658287,117.037605 7.743295,128.955627 
	C9.341635,128.864609 10.151930,128.943268 10.895704,128.756714 
	C17.967009,126.983002 25.038473,125.207039 32.080360,123.321442 
	C33.442173,122.956810 35.250172,122.465874 35.881866,121.437225 
	C44.757282,106.984467 50.759033,91.604881 48.711117,74.265999 
	C47.811817,66.652031 42.034973,62.413143 35.660740,63.445629 
	C40.739590,71.877708 37.650085,80.082214 34.640953,89.021828 
M22.829159,68.608109 
	C24.166670,74.770897 27.017658,79.884995 33.342896,82.883583 
	C33.469997,80.545700 32.821972,78.506447 32.198250,76.459785 
	C30.783640,71.817924 28.499279,67.229172 28.195803,62.514099 
	C27.813099,56.568089 32.876160,51.061756 38.564201,49.274269 
	C45.055317,47.234413 54.446999,49.136948 57.284451,54.045872 
	C59.278252,57.495247 59.651703,61.881210 60.884144,66.338806 
	C64.180618,67.341301 68.367035,68.614449 72.753876,69.948532 
	C74.942627,63.490425 73.217377,58.102356 69.626999,53.255989 
	C62.261604,43.314007 46.237469,39.760368 34.864777,45.348480 
	C26.218014,49.597176 21.410585,58.422939 22.829159,68.608109 
M81.010925,95.406311 
	C80.761223,76.535072 66.833366,64.654182 49.517883,68.558830 
	C50.268246,71.568558 51.017242,74.572815 51.728722,77.426590 
	C67.219032,79.479599 66.284164,90.634300 65.278008,101.229408 
	C70.111282,100.427498 74.753838,99.754066 79.336250,98.793678 
	C80.032372,98.647789 80.449394,97.170120 81.010925,95.406311 
M86.551414,120.856880 
	C89.873367,113.769081 88.623764,107.910561 83.019081,104.296181 
	C78.115303,101.133827 71.461319,101.996925 67.612221,106.294632 
	C63.436127,110.957413 63.921242,118.582581 68.443642,122.965385 
	C72.224182,126.629250 81.333748,128.078812 86.551414,120.856880 
M44.789703,17.945496 
	C40.048901,20.072254 37.689877,23.692474 37.794144,28.928808 
	C37.880535,33.267616 39.644810,36.633110 43.452034,38.769753 
	C48.086239,41.370502 53.995960,40.517174 57.691784,36.823215 
	C61.424088,33.092808 62.158066,27.832911 59.608833,23.085215 
	C56.949196,18.131905 51.983234,16.233932 44.789703,17.945496 
z"/>
<path fill="#9C9C9C" opacity="1.000000" stroke="none" 
	d="
M34.790398,88.659264 
	C37.650085,80.082214 40.739590,71.877708 35.660740,63.445629 
	C42.034973,62.413143 47.811817,66.652031 48.711117,74.265999 
	C50.759033,91.604881 44.757282,106.984467 35.881866,121.437225 
	C35.250172,122.465874 33.442173,122.956810 32.080360,123.321442 
	C25.038473,125.207039 17.967009,126.983002 10.895704,128.756714 
	C10.151930,128.943268 9.341635,128.864609 7.743295,128.955627 
	C19.658287,117.037605 28.644947,104.013947 34.790398,88.659264 
z"/>
<path fill="#9D9D9D" opacity="1.000000" stroke="none" 
	d="
M22.727551,68.212692 
	C21.410585,58.422939 26.218014,49.597176 34.864777,45.348480 
	C46.237469,39.760368 62.261604,43.314007 69.626999,53.255989 
	C73.217377,58.102356 74.942627,63.490425 72.753876,69.948532 
	C68.367035,68.614449 64.180618,67.341301 60.884144,66.338806 
	C59.651703,61.881210 59.278252,57.495247 57.284451,54.045872 
	C54.446999,49.136948 45.055317,47.234413 38.564201,49.274269 
	C32.876160,51.061756 27.813099,56.568089 28.195803,62.514099 
	C28.499279,67.229172 30.783640,71.817924 32.198250,76.459785 
	C32.821972,78.506447 33.469997,80.545700 33.342896,82.883583 
	C27.017658,79.884995 24.166670,74.770897 22.727551,68.212692 
z"/>
<path fill="#9C9C9C" opacity="1.000000" stroke="none" 
	d="
M81.003220,95.857376 
	C80.449394,97.170120 80.032372,98.647789 79.336250,98.793678 
	C74.753838,99.754066 70.111282,100.427498 65.278008,101.229408 
	C66.284164,90.634300 67.219032,79.479599 51.728722,77.426590 
	C51.017242,74.572815 50.268246,71.568558 49.517883,68.558830 
	C66.833366,64.654182 80.761223,76.535072 81.003220,95.857376 
z"/>
<path fill="#9B9B9B" opacity="1.000000" stroke="none" 
	d="
M86.310440,121.148399 
	C81.333748,128.078812 72.224182,126.629250 68.443642,122.965385 
	C63.921242,118.582581 63.436127,110.957413 67.612221,106.294632 
	C71.461319,101.996925 78.115303,101.133827 83.019081,104.296181 
	C88.623764,107.910561 89.873367,113.769081 86.310440,121.148399 
z"/>
<path fill="#9B9B9B" opacity="1.000000" stroke="none" 
	d="
M45.167252,17.827744 
	C51.983234,16.233932 56.949196,18.131905 59.608833,23.085215 
	C62.158066,27.832911 61.424088,33.092808 57.691784,36.823215 
	C53.995960,40.517174 48.086239,41.370502 43.452034,38.769753 
	C39.644810,36.633110 37.880535,33.267616 37.794144,28.928808 
	C37.689877,23.692474 40.048901,20.072254 45.167252,17.827744 
z"/>
</svg>